<svg id="Layer_1" data-name="Layer 1" xmlns="http://www.w3.org/2000/svg" xmlns:xlink="http://www.w3.org/1999/xlink" viewBox="0 0 173.29 173.28"><defs><style>.cls-1{fill:url(#linear-gradient);}.cls-2{fill:url(#linear-gradient-2);}.cls-3{fill:url(#linear-gradient-3);}</style><linearGradient id="linear-gradient" x1="2.72" y1="839.43" x2="2.72" y2="838.43" gradientTransform="matrix(173.29, 0, 0, -129.96, -172.3, 109423.34)" gradientUnits="userSpaceOnUse"><stop offset="0" stop-color="#e8412c"/><stop offset="0.01" stop-color="#e8402d"/><stop offset="0.27" stop-color="#b34492"/><stop offset="0.45" stop-color="#654e9b"/><stop offset="0.53" stop-color="#56519e"/><stop offset="0.61" stop-color="#524c9a"/><stop offset="1" stop-color="#2f2974"/></linearGradient><linearGradient id="linear-gradient-2" x1="8.8" y1="830.44" x2="8.8" y2="829.44" gradientTransform="matrix(28.88, 0, 0, -28.88, 8.22, 24447.03)" xlink:href="#linear-gradient"/><linearGradient id="linear-gradient-3" x1="11.23" y1="826.59" x2="11.23" y2="825.59" gradientTransform="matrix(21.66, 0, 0, -21.66, -13.44, 18389.45)" xlink:href="#linear-gradient"/></defs><g id="Group_286" data-name="Group 286"><g id="Group_285" data-name="Group 285"><path id="Path_3011" data-name="Path 3011" class="cls-1" d="M327.36,333.88a57.29,57.29,0,0,0-43.83,20.23,48.72,48.72,0,1,0-22.95,91.68H261a28.57,28.57,0,0,0,26.66,18,28.87,28.87,0,0,0,25.8-16.13,57.76,57.76,0,0,0,27.8-112.13A58.62,58.62,0,0,0,327.36,333.88Zm0,108.3a50.28,50.28,0,0,1-14.92-2.24,3.62,3.62,0,0,0-4.46,2.24A21.51,21.51,0,0,1,267,441c-.45-1.54-2.38-2.55-4-2.55h-.27c-.7,0-1.39.1-2.1.1a41.52,41.52,0,1,1,21.9-76.73,3.6,3.6,0,0,0,4.78-.87,50.52,50.52,0,1,1,40.1,81.21Z" transform="translate(-211.83 -333.88)"/><path id="Path_3012" data-name="Path 3012" class="cls-2" d="M262.38,463.84a14.44,14.44,0,1,0,14.44,14.44A14.45,14.45,0,0,0,262.38,463.84Zm0,21.66a7.22,7.22,0,1,1,7.22-7.22A7.22,7.22,0,0,1,262.38,485.5Z" transform="translate(-211.83 -333.88)"/><path id="Path_3013" data-name="Path 3013" class="cls-3" d="M229.89,485.5a10.83,10.83,0,1,0,10.83,10.83h0A10.84,10.84,0,0,0,229.89,485.5Zm0,14.44a3.61,3.61,0,1,1,3.61-3.61h0A3.61,3.61,0,0,1,229.89,499.94Z" transform="translate(-211.83 -333.88)"/></g></g></svg>