<svg id="Layer_1" data-name="Layer 1" xmlns="http://www.w3.org/2000/svg" xmlns:xlink="http://www.w3.org/1999/xlink" viewBox="0 0 111.84 124.57"><defs><style>.cls-1{fill:url(#linear-gradient);}.cls-2{fill:url(#linear-gradient-2);}.cls-3{fill:url(#linear-gradient-3);}.cls-4{fill:url(#linear-gradient-4);}.cls-5{fill:url(#linear-gradient-5);}.cls-6{fill:url(#linear-gradient-6);}.cls-7{fill:url(#linear-gradient-7);}.cls-8{fill:url(#linear-gradient-8);}</style><linearGradient id="linear-gradient" x1="19.29" y1="835.37" x2="18.35" y2="833.98" gradientTransform="matrix(13.67, 0, 0, -56.39, 43.01, 47518.56)" gradientUnits="userSpaceOnUse"><stop offset="0" stop-color="#e8412c"/><stop offset="1" stop-color="#56519e"/></linearGradient><linearGradient id="linear-gradient-2" x1="10.96" y1="838.7" x2="10.46" y2="838.07" gradientTransform="matrix(25.65, 0, 0, -124.57, 38.61, 104889.7)" xlink:href="#linear-gradient"/><linearGradient id="linear-gradient-3" x1="11.9" y1="838.35" x2="11.35" y2="837.65" gradientTransform="matrix(23.3, 0, 0, -111.26, 55.45, 93689.7)" xlink:href="#linear-gradient"/><linearGradient id="linear-gradient-4" x1="15" y1="837.16" x2="14.28" y2="836.2" gradientTransform="matrix(17.93, 0, 0, -81.17, 76.98, 68366.42)" xlink:href="#linear-gradient"/><linearGradient id="linear-gradient-5" x1="15.11" y1="837.34" x2="14.4" y2="836.38" gradientTransform="matrix(17.97, 0, 0, -81.17, -16.97, 68366.42)" xlink:href="#linear-gradient"/><linearGradient id="linear-gradient-6" x1="11.98" y1="838.44" x2="11.43" y2="837.74" gradientTransform="matrix(23.29, 0, 0, -111.26, -11.55, 93689.7)" xlink:href="#linear-gradient"/><linearGradient id="linear-gradient-7" x1="11.01" y1="838.75" x2="10.51" y2="838.12" gradientTransform="matrix(25.64, 0, 0, -124.57, -1.61, 104889.7)" xlink:href="#linear-gradient"/><linearGradient id="linear-gradient-8" x1="19.28" y1="835.41" x2="18.35" y2="834.02" gradientTransform="matrix(13.69, 0, 0, -56.39, 29.55, 47518.56)" xlink:href="#linear-gradient"/></defs><g id="Group_296" data-name="Group 296"><path id="Path_2893" data-name="Path 2893" class="cls-1" d="M306.69,396.36a340.46,340.46,0,0,0-8.82,50c-.43,4.26,3.61,4.26,4.8,0a346.31,346.31,0,0,0,8.82-50C311.89,392.13,307.77,392.13,306.69,396.36Z" transform="translate(-242.15 -358.21)"/><path id="Path_2894" data-name="Path 2894" class="cls-2" d="M326.15,361.89c-8.16,38.9-14.95,78-20.66,117.21-.72,4.91,3.8,4.91,4.8,0q12.25-58.83,20.7-117.21C331.68,357,327.2,357,326.15,361.89Z" transform="translate(-242.15 -358.21)"/><path id="Path_2895" data-name="Path 2895" class="cls-3" d="M338.33,368.83c-7.23,34.49-13.44,69.13-18.35,104-.69,4.88,3.79,4.88,4.84,0C332,438,338.36,403.32,343.13,368.83,343.85,364,339.41,364,338.33,368.83Z" transform="translate(-242.15 -358.21)"/><path id="Path_2896" data-name="Path 2896" class="cls-4" d="M349.16,384.44c-5.63,24.6-9.9,49.26-13,74-.61,4.77,3.62,4.77,4.8,0,5.6-24.78,10-49.44,13-74C354.4,379.71,350.1,379.71,349.16,384.44Z" transform="translate(-242.15 -358.21)"/><path id="Path_2897" data-name="Path 2897" class="cls-5" d="M255.25,384.44c-5.63,24.6-9.9,49.26-13,74-.61,4.77,3.62,4.77,4.8,0,5.6-24.78,10.05-49.44,13.08-74C260.53,379.71,256.23,379.71,255.25,384.44Z" transform="translate(-242.15 -358.21)"/><path id="Path_2898" data-name="Path 2898" class="cls-6" d="M271.29,368.83c-7.22,34.49-13.4,69.13-18.31,104-.72,4.88,3.61,4.88,4.8,0C265,438,271.32,403.32,276.09,368.83,276.92,364,272.34,364,271.29,368.83Z" transform="translate(-242.15 -358.21)"/><path id="Path_2899" data-name="Path 2899" class="cls-7" d="M285.92,361.89c-8.17,38.9-15,78-20.66,117.21-.72,4.91,3.79,4.91,4.8,0q12.24-58.83,20.7-117.21C291.37,357,287,357,285.92,361.89Z" transform="translate(-242.15 -358.21)"/><path id="Path_2900" data-name="Path 2900" class="cls-8" d="M293.29,396.36a341.88,341.88,0,0,0-8.86,50c-.43,4.26,3.62,4.26,4.8,0a340.92,340.92,0,0,0,8.82-50C298.6,392.13,294.33,392.13,293.29,396.36Z" transform="translate(-242.15 -358.21)"/></g></svg>