<svg id="Layer_1" data-name="Layer 1" xmlns="http://www.w3.org/2000/svg" viewBox="0 0 61.03 63.69"><defs><style>.cls-1{fill:#290088;}.cls-2{fill:#0a0254;}.cls-3{fill:#7849ff;}.cls-4{fill:#0199b1;}.cls-5{fill:#fff;}.cls-6{fill:#fd2c2c;}.cls-7{fill:#fd5426;}.cls-8{fill:#d73d24;}</style></defs><g id="svgexport-6"><g id="Group_328" data-name="Group 328"><path id="Path_3202" data-name="Path 3202" class="cls-1" d="M957.21,564a4.23,4.23,0,0,1-4.23-4.23v-24.7a4.23,4.23,0,0,1,4.23-4.24h24.7a4.25,4.25,0,0,1,4.24,4.24v21.52a30.52,30.52,0,1,0-6,7.41Z" transform="translate(-929.21 -508.15)"/><path id="Path_3203" data-name="Path 3203" class="cls-2" d="M946.8,544.74H929.44a30.49,30.49,0,0,0,19.62,25.18V547A2.27,2.27,0,0,0,946.8,544.74Z" transform="translate(-929.21 -508.15)"/><path id="Path_3204" data-name="Path 3204" class="cls-2" d="M971.2,513.12v9.93a2.26,2.26,0,0,0,2.26,2.27h12.19A30.64,30.64,0,0,0,971.2,513.12Z" transform="translate(-929.21 -508.15)"/><g id="Group_327" data-name="Group 327"><path id="Path_3205" data-name="Path 3205" class="cls-3" d="M953,535.07a4.24,4.24,0,0,1,4.23-4.24h9.4V512.51a4.37,4.37,0,0,0-4.36-4.36H937.56a4.36,4.36,0,0,0-4.36,4.36h0v24.7a4.36,4.36,0,0,0,4.36,4.36H953Z" transform="translate(-929.21 -508.15)"/><path id="Path_3206" data-name="Path 3206" class="cls-3" d="M953,535.07a4.23,4.23,0,0,1,4.23-4.23h6V512.51a1,1,0,0,0-1-1h-24.7a1,1,0,0,0-1,1v24.7a1,1,0,0,0,1,1H953Z" transform="translate(-929.21 -508.15)"/><path id="Path_3207" data-name="Path 3207" class="cls-3" d="M942.34,537.21v-24.7a1,1,0,0,1,1-1h-5.74a1,1,0,0,0-1,1v24.7a1,1,0,0,0,1,1h5.74A1,1,0,0,1,942.34,537.21Z" transform="translate(-929.21 -508.15)"/><g id="Group_324" data-name="Group 324"><path id="Path_3208" data-name="Path 3208" class="cls-4" d="M949.91,520.21l-.92,2.42,1.62,4.28h1.83Z" transform="translate(-929.21 -508.15)"/><path id="Path_3209" data-name="Path 3209" class="cls-4" d="M954.35,532l-.62-1.64H951.9l1.3,3.42A4.19,4.19,0,0,1,954.35,532Z" transform="translate(-929.21 -508.15)"/><path id="Path_3210" data-name="Path 3210" class="cls-4" d="M940.88,534.45l7.44-19.63A1.62,1.62,0,0,1,949,514a1.69,1.69,0,0,0-2.34.52,1.3,1.3,0,0,0-.16.31l-7.43,19.63a.61.61,0,0,0,.36.8.54.54,0,0,0,.22,0h1.82a.62.62,0,0,1-.62-.62A.54.54,0,0,1,940.88,534.45Z" transform="translate(-929.21 -508.15)"/></g><path id="Path_3211" data-name="Path 3211" class="cls-5" d="M954.35,532a4.22,4.22,0,0,1,2.86-1.12h.35l-6.07-16a1.7,1.7,0,0,0-2.19-1,1.72,1.72,0,0,0-1,1l-7.43,19.63a.62.62,0,0,0,.36.8.57.57,0,0,0,.22,0h2.3a.62.62,0,0,0,.58-.4l1.74-4.58h7.64Zm-7-5,2.53-6.7,2.54,6.7Z" transform="translate(-929.21 -508.15)"/><path id="Path_3212" data-name="Path 3212" class="cls-6" d="M986.27,535.07a4.36,4.36,0,0,0-4.36-4.36h-24.7a4.36,4.36,0,0,0-4.36,4.36v24.7a4.36,4.36,0,0,0,4.36,4.36H980a30.68,30.68,0,0,0,6.27-7.76Z" transform="translate(-929.21 -508.15)"/><g id="Group_325" data-name="Group 325"><path id="Path_3213" data-name="Path 3213" class="cls-7" d="M959.89,559.76v-24.7a4.36,4.36,0,0,1,4.36-4.35h-7a4.35,4.35,0,0,0-4.36,4.35h0v24.7a4.36,4.36,0,0,0,4.36,4.36h7A4.36,4.36,0,0,1,959.89,559.76Z" transform="translate(-929.21 -508.15)"/></g><g id="Group_326" data-name="Group 326"><path id="Path_3214" data-name="Path 3214" class="cls-8" d="M959.69,551a7.44,7.44,0,0,1,4.4-6.66,5.28,5.28,0,0,1-.71-2.32,5.39,5.39,0,0,1,4.7-5.69,4,4,0,0,0-.6-.05h-1a5.4,5.4,0,0,0-5.39,5.4c0,.11,0,.23,0,.34a5.28,5.28,0,0,0,.71,2.32,7.44,7.44,0,0,0,3,14.23h2.27a7.47,7.47,0,0,1-7.47-7.47A.31.31,0,0,1,959.69,551Z" transform="translate(-929.21 -508.15)"/></g><path id="Path_3215" data-name="Path 3215" class="cls-5" d="M979.25,553.17a17,17,0,0,1-8,2h-4a4.12,4.12,0,0,1-4.15-3.94A4.07,4.07,0,0,1,967,547h4.12a3.64,3.64,0,0,1,1.9.54l1.08.67,1.15-6.8-.44.48a5.11,5.11,0,0,1-3.82,1.71h-2.27a2,2,0,0,1-2-2,1.77,1.77,0,0,1,0-.23,2,2,0,0,1,2-1.75h6l-2-2.08a4.24,4.24,0,0,0-3.08-1.32h-1a5.39,5.39,0,0,0-5.39,5.4c0,.11,0,.22,0,.33a5.32,5.32,0,0,0,.71,2.33,7.43,7.43,0,0,0,3,14.22h3.81a10.36,10.36,0,0,0,9.36-5.95Z" transform="translate(-929.21 -508.15)"/></g></g></g></svg>