<svg id="Layer_1" data-name="Layer 1" xmlns="http://www.w3.org/2000/svg" xmlns:xlink="http://www.w3.org/1999/xlink" viewBox="0 0 176.21 47.7"><defs><style>.cls-1{fill:url(#linear-gradient);}.cls-2{fill:url(#linear-gradient-2);}.cls-3{fill:url(#linear-gradient-3);}.cls-4{fill:url(#linear-gradient-4);}.cls-5{fill:url(#linear-gradient-5);}.cls-6{fill:url(#linear-gradient-6);}.cls-7{fill:url(#linear-gradient-7);}.cls-8{fill:url(#linear-gradient-8);}.cls-9{fill:url(#linear-gradient-9);}.cls-10{fill:#21224a;}</style><linearGradient id="linear-gradient" x1="-127.55" y1="-360.05" x2="-128.49" y2="-358.66" gradientTransform="translate(826.84 7790.91) scale(5.24 21.59)" gradientUnits="userSpaceOnUse"><stop offset="0" stop-color="#e8412c"/><stop offset="1" stop-color="#56519e"/></linearGradient><linearGradient id="linear-gradient-2" x1="-164.89" y1="-380.05" x2="-165.4" y2="-379.42" gradientTransform="translate(1782.38 18144.65) scale(9.82 47.69)" xlink:href="#linear-gradient"/><linearGradient id="linear-gradient-3" x1="-160.61" y1="-378.05" x2="-161.16" y2="-377.35" gradientTransform="translate(1600.73 16125.8) scale(8.92 42.6)" xlink:href="#linear-gradient"/><linearGradient id="linear-gradient-4" x1="-146.66" y1="-371.18" x2="-147.37" y2="-370.22" gradientTransform="translate(1180.52 11555.88) scale(6.87 31.07)" xlink:href="#linear-gradient"/><linearGradient id="linear-gradient-5" x1="-146.62" y1="-371.35" x2="-147.34" y2="-370.39" gradientTransform="translate(1146.64 11555.88) scale(6.88 31.07)" xlink:href="#linear-gradient"/><linearGradient id="linear-gradient-6" x1="-160.53" y1="-378.14" x2="-161.08" y2="-377.44" gradientTransform="translate(1575.07 16125.8) scale(8.92 42.6)" xlink:href="#linear-gradient"/><linearGradient id="linear-gradient-7" x1="-164.81" y1="-380.09" x2="-165.31" y2="-379.46" gradientTransform="translate(1764.89 18144.65) scale(9.81 47.69)" xlink:href="#linear-gradient"/><linearGradient id="linear-gradient-8" x1="-127.54" y1="-360.06" x2="-128.48" y2="-358.67" gradientTransform="translate(821.69 7790.91) scale(5.24 21.59)" xlink:href="#linear-gradient"/><linearGradient id="linear-gradient-9" x1="-109.81" y1="-217.89" x2="-110.95" y2="-210.96" gradientTransform="translate(647.97 965.08) scale(4.31)" xlink:href="#linear-gradient"/></defs><path id="Path_2893" data-name="Path 2893" class="cls-1" d="M158.12,14.61a130.79,130.79,0,0,0-3.38,19.15c-.16,1.63,1.38,1.63,1.84,0A132.11,132.11,0,0,0,160,14.61C160.11,13,158.53,13,158.12,14.61Z" transform="translate(-0.02 0)"/><path id="Path_2894" data-name="Path 2894" class="cls-2" d="M165.57,1.42c-3.13,14.89-5.73,29.85-7.91,44.86-.28,1.89,1.45,1.89,1.84,0q4.68-22.51,7.92-44.86C167.68-.47,166-.47,165.57,1.42Z" transform="translate(-0.02 0)"/><path id="Path_2895" data-name="Path 2895" class="cls-3" d="M170.19,4.07c-2.77,13.2-5.15,26.47-7,39.8-.26,1.87,1.46,1.87,1.86,0,2.76-13.33,5.18-26.59,7-39.8C172.34,2.2,170.64,2.2,170.19,4.07Z" transform="translate(-0.02 0)"/><path id="Path_2896" data-name="Path 2896" class="cls-4" d="M174.38,10c-2.16,9.42-3.79,18.86-5,28.35-.23,1.82,1.39,1.82,1.84,0q3.22-14.24,5-28.35C176.38,8.23,174.74,8.23,174.38,10Z" transform="translate(-0.02 0)"/><path id="Path_2897" data-name="Path 2897" class="cls-5" d="M138.43,10c-2.16,9.42-3.79,18.86-5,28.35-.23,1.82,1.39,1.82,1.84,0a286.41,286.41,0,0,0,5-28.35C140.44,8.23,138.8,8.23,138.43,10Z" transform="translate(-0.02 0)"/><path id="Path_2898" data-name="Path 2898" class="cls-6" d="M144.56,4.07c-2.76,13.2-5.13,26.47-7,39.8-.27,1.87,1.39,1.87,1.84,0,2.77-13.33,5.19-26.59,7-39.8C146.72,2.2,145,2.2,144.56,4.07Z" transform="translate(-0.02 0)"/><path id="Path_2899" data-name="Path 2899" class="cls-7" d="M150.19,1.42c-3.13,14.89-5.73,29.85-7.91,44.86-.28,1.89,1.45,1.89,1.84,0Q148.8,23.77,152,1.42C152.25-.47,150.57-.47,150.19,1.42Z" transform="translate(-0.02 0)"/><path id="Path_2900" data-name="Path 2900" class="cls-8" d="M153,14.61a129.5,129.5,0,0,0-3.39,19.15c-.17,1.63,1.38,1.63,1.84,0a130.77,130.77,0,0,0,3.37-19.15C155,13,153.39,13,153,14.61Z" transform="translate(-0.02 0)"/><path id="Path_2901" data-name="Path 2901" class="cls-9" d="M169.3,45.59a2.16,2.16,0,1,1,2.22,2.1h-.06a2.11,2.11,0,0,1-2.16-2.06h0Zm4,0a1.85,1.85,0,1,0-1.86,1.84h0a1.81,1.81,0,0,0,1.85-1.79h0Zm-2.57-1.13h.87a.7.7,0,0,1,.71.69h0a.7.7,0,0,1-.42.63l.46.9h-.3l-.42-.85H171v.85h-.29Zm.86,1.16a.44.44,0,0,0,.44-.44h0a.46.46,0,0,0-.44-.47H171v.93Z" transform="translate(-0.02 0)"/><path id="Path_2902" data-name="Path 2902" class="cls-10" d="M10.8,8.59h3v18h-3V18.8H3v7.78H0v-18H3v7.35H10.8Z" transform="translate(-0.02 0)"/><path id="Path_2903" data-name="Path 2903" class="cls-10" d="M20,11.61a1.79,1.79,0,0,1-2.52,0,1.78,1.78,0,0,1,1.25-3.06,1.78,1.78,0,0,1,1.35,2.95h0l-.07.07ZM17.19,26.55V13.66H20V26.49Z" transform="translate(-0.02 0)"/><path id="Path_2904" data-name="Path 2904" class="cls-10" d="M46.82,13.35a4.93,4.93,0,0,1,3.65,1.38,5.3,5.3,0,0,1,1.38,3.87v7.89H49.08V18.9a2.76,2.76,0,0,0-2.5-3h-.44a3.28,3.28,0,0,0-2.41.91,3.84,3.84,0,0,0-.92,2.77v6.91H40v-18h2.77v6.86a4.44,4.44,0,0,1,4-1.95Z" transform="translate(-0.02 0)"/><path id="Path_2905" data-name="Path 2905" class="cls-10" d="M82.71,26.89a6.81,6.81,0,0,1-4.9-2,6.7,6.7,0,0,1-.12-9.47h0l.11-.12a7.16,7.16,0,0,1,9.82,0,6.74,6.74,0,0,1,.07,9.53h0l-.06.06A6.78,6.78,0,0,1,82.71,26.89ZM79.81,23a4.15,4.15,0,0,0,5.83-5.8,4.26,4.26,0,0,0-5.83,0A4.14,4.14,0,0,0,79.81,23Z" transform="translate(-0.02 0)"/><path id="Path_2906" data-name="Path 2906" class="cls-10" d="M94.9,11.61a1.79,1.79,0,0,1-2.52,0,1.77,1.77,0,0,1,0-2.52,1.8,1.8,0,0,1,1.28-.54,1.74,1.74,0,0,1,1.29.53A1.71,1.71,0,0,1,95,11.5h0l-.07.07ZM92.19,26.55V13.66H95V26.49Z" transform="translate(-0.02 0)"/><path id="Path_2907" data-name="Path 2907" class="cls-10" d="M105.24,13.35a4.84,4.84,0,0,1,3.64,1.38,5.3,5.3,0,0,1,1.38,3.87v7.88h-2.77V18.89a2.76,2.76,0,0,0-2.48-3h-.45a3.29,3.29,0,0,0-2.42.91,3.76,3.76,0,0,0-.91,2.76v6.92H98.46V13.67h2.73v1.68A4.48,4.48,0,0,1,105.24,13.35Z" transform="translate(-0.02 0)"/><path id="Path_2908" data-name="Path 2908" class="cls-10" d="M120.6,16.43h-3.25V22.6a1.32,1.32,0,0,0,1.45,1.52h1.8v2.49a7.24,7.24,0,0,1-4.67-.55,3.86,3.86,0,0,1-1.38-3.45V16.43h-2.36V13.67h2.41V10.9l2.77-.82v3.59h3.24Z" transform="translate(-0.02 0)"/><path id="Path_2909" data-name="Path 2909" class="cls-10" d="M73.27,10.28a6,6,0,0,0-4.34-1.69H61.64v2.76h7.29a3,3,0,0,1,2.2.89,3.33,3.33,0,0,1,0,4.49,2.94,2.94,0,0,1-2.2.88H61.64v8.94h3V20.39h4.27a5.92,5.92,0,0,0,4.34-10.12Z" transform="translate(-0.02 0)"/><path id="Path_2910" data-name="Path 2910" class="cls-10" d="M33.85,13.67v1.89a5.32,5.32,0,0,0-4.56-2.21,6.39,6.39,0,0,0-4.7,1.94,6.62,6.62,0,0,0,4.7,11.31,5.25,5.25,0,0,0,4.56-2.24v1.56a3.29,3.29,0,0,1-1,2.62,4.15,4.15,0,0,1-2.87.94,4.93,4.93,0,0,1-2.47-.57l-1.23,2.38a8.79,8.79,0,0,0,3.65.7,7.42,7.42,0,0,0,4.77-1.57,5.43,5.43,0,0,0,2-4.5V13.67Zm-1.19,9.16a4.41,4.41,0,0,1-6,0,4.08,4.08,0,0,1,0-5.75,4.39,4.39,0,0,1,6,0A4.08,4.08,0,0,1,32.66,22.83Z" transform="translate(-0.02 0)"/><path id="Path_2911" data-name="Path 2911" class="cls-10" d="M66.19,33.43v.78H64.31v5.42h-.83V34.21H61.61v-.78Z" transform="translate(-0.02 0)"/><path id="Path_2912" data-name="Path 2912" class="cls-10" d="M67.9,38.86h3v.77H67.11v-6.2h3.73v.78H68v1.91h2.67v.76H68Z" transform="translate(-0.02 0)"/><path id="Path_2913" data-name="Path 2913" class="cls-10" d="M74.82,39.76a3.22,3.22,0,0,1-.25-6.44h.25a3.2,3.2,0,0,1,1.6.4,3,3,0,0,1,1.13,1.1l-.73.42a2,2,0,0,0-.82-.82,2.33,2.33,0,0,0-1.18-.3,2.38,2.38,0,0,0-1.79.69,2.49,2.49,0,0,0,0,3.44,2.35,2.35,0,0,0,1.79.7,2.44,2.44,0,0,0,1.18-.3,2,2,0,0,0,.82-.82l.73.41a2.94,2.94,0,0,1-1.13,1.11,3.21,3.21,0,0,1-1.6.42Z" transform="translate(-0.02 0)"/><path id="Path_2914" data-name="Path 2914" class="cls-10" d="M82.4,33.43h.79v6.21h-.83V36.87H79.27v2.77h-.84V33.43h.84v2.64h3.09Z" transform="translate(-0.02 0)"/><path id="Path_2915" data-name="Path 2915" class="cls-10" d="M88.52,33.43h.84v6.21h-.71L85.38,35v4.64h-.84V33.43h.65l3.29,4.67Z" transform="translate(-0.02 0)"/><path id="Path_2916" data-name="Path 2916" class="cls-10" d="M96,38.82a3.36,3.36,0,0,1-4.66,0,3.11,3.11,0,0,1-1-2.28,3.06,3.06,0,0,1,1-2.28,3.34,3.34,0,0,1,4.66,0,3.1,3.1,0,0,1,0,4.56Zm-4.15-.57a2.55,2.55,0,0,0,3.49,0,2.42,2.42,0,1,0-4.15-1.71,2.3,2.3,0,0,0,.73,1.71Z" transform="translate(-0.02 0)"/><path id="Path_2917" data-name="Path 2917" class="cls-10" d="M98.81,38.86h2.77v.77H98v-6.2h.85Z" transform="translate(-0.02 0)"/><path id="Path_2918" data-name="Path 2918" class="cls-10" d="M107.19,38.82a3.36,3.36,0,0,1-4.66,0,3.11,3.11,0,0,1-1-2.28,3.06,3.06,0,0,1,1-2.28,3.34,3.34,0,0,1,4.66,0,3.21,3.21,0,0,1,0,4.54Zm-4-.57a2.54,2.54,0,0,0,3.48,0,2.49,2.49,0,0,0,0-3.44,2.36,2.36,0,0,0-1.74-.69,2.42,2.42,0,0,0-1.74,4.15Z" transform="translate(-0.02 0)"/><path id="Path_2919" data-name="Path 2919" class="cls-10" d="M115.32,36.56v.38a2.71,2.71,0,0,1-.86,2,3.2,3.2,0,0,1-2.25.8,3.33,3.33,0,0,1-2.39-.94,3.24,3.24,0,0,1,0-4.57,3.43,3.43,0,0,1,4-.52,3.05,3.05,0,0,1,1.12,1.08l-.72.43a2,2,0,0,0-.82-.82,2.45,2.45,0,0,0-1.22-.3,2.36,2.36,0,0,0-2.47,2.25v.17a2.3,2.3,0,0,0,.7,1.71,2.77,2.77,0,0,0,3.35.24,1.78,1.78,0,0,0,.72-1.18h-2.29v-.74Z" transform="translate(-0.02 0)"/><path id="Path_2920" data-name="Path 2920" class="cls-10" d="M120.6,33.43l-2.25,3.74v2.5h-.84v-2.5l-2.23-3.69h.91l1.73,2.92,1.71-2.92Z" transform="translate(-0.02 0)"/></svg>