<svg id="Layer_1" data-name="Layer 1" xmlns="http://www.w3.org/2000/svg" viewBox="0 0 115.87 165.86"><defs><style>.cls-1,.cls-2,.cls-3{fill:none;stroke:#e73736;stroke-miterlimit:10;}.cls-2{stroke-width:0.5px;}.cls-3{stroke-width:0.75px;}.cls-4{fill:#e73736;}.cls-5{fill:#e73738;}</style></defs><path id="Path_3008" data-name="Path 3008" class="cls-1" d="M242.26,436.5H353.71a1.71,1.71,0,0,1,1.72,1.71,1.9,1.9,0,0,1-.09.58L338.41,486.5h-81a.8.8,0,0,1-.75-.54l-16-47.26a1.71,1.71,0,0,1,1.16-2.13,1.47,1.47,0,0,1,.46-.07Z" transform="translate(-240.07 -337.51)"/><path id="Path_3009" data-name="Path 3009" class="cls-2" d="M323,453.5H305.17l-1.74,10.63a1.67,1.67,0,0,1-1.64,1.37H282" transform="translate(-240.07 -337.51)"/><circle id="Ellipse_93" data-name="Ellipse 93" class="cls-3" cx="34.8" cy="127.64" r="5.82"/><circle id="Ellipse_94" data-name="Ellipse 94" class="cls-1" cx="89.2" cy="115.53" r="5.61"/><ellipse id="Ellipse_95" data-name="Ellipse 95" class="cls-1" cx="57.31" cy="23.83" rx="18.75" ry="23.33"/><path id="Path_3010" data-name="Path 3010" class="cls-1" d="M252.45,428.5h90.74a42.46,42.46,0,0,0-4.8-19.72,44.51,44.51,0,0,0-24.66-20.72,1.61,1.61,0,0,0-1.7.4l-14.77,14.2-14.87-14.87a.32.32,0,0,0-.3,0,42.26,42.26,0,0,0-19.2,12.13,43.58,43.58,0,0,0-10.65,28.37Z" transform="translate(-240.07 -337.51)"/><rect id="Rectangle_1658" data-name="Rectangle 1658" class="cls-4" x="56.93" y="64.49" width="1" height="26"/><path id="Rectangle_1659" data-name="Rectangle 1659" class="cls-4" d="M267.61,486h1.21c.12.41.23.52.18.64v16.62c.05.13-.06.23-.18-.26h-1.21c-.13.49-.23.39-.61.26V486.64C267.38,486.52,267.48,486.41,267.61,486Z" transform="translate(-240.07 -337.51)"/><path id="Rectangle_1660" data-name="Rectangle 1660" class="cls-4" d="M326.7,486h1.81a1.44,1.44,0,0,0,.49.64v16.62c-.15.13-.3.23-.49-.26H326.7c-.19.49-.35.39-.7.26V486.64A1,1,0,0,0,326.7,486Z" transform="translate(-240.07 -337.51)"/><rect id="Rectangle_1661" data-name="Rectangle 1661" class="cls-4" x="223.37" y="409.87" width="49.78" height="2.12" rx="0.35" transform="translate(-418.67 293.16) rotate(-86.1)"/><rect id="Rectangle_1662" data-name="Rectangle 1662" class="cls-5" x="248.77" y="385.03" width="10.1" height="2.31" rx="0.38" transform="translate(-322.71 -268.11) rotate(-13.41)"/></svg>