<svg id="Layer_1" data-name="Layer 1" xmlns="http://www.w3.org/2000/svg" viewBox="0 0 15.83 19"><defs><style>.cls-1{fill:#999;}</style></defs><g id="Group_300" data-name="Group 300"><g id="Group_299" data-name="Group 299"><path id="Path_3190" data-name="Path 3190" class="cls-1" d="M956.55,544.55h-.63a.32.32,0,1,0,0,.63h.66a.32.32,0,0,0,.34-.3.32.32,0,0,0-.3-.33Z" transform="translate(-951.8 -530.93)"/></g></g><g id="Group_302" data-name="Group 302"><g id="Group_301" data-name="Group 301"><path id="Path_3191" data-name="Path 3191" class="cls-1" d="M965.42,544.55h-7.6a.32.32,0,1,0,0,.63h7.63a.32.32,0,0,0,.34-.3.32.32,0,0,0-.3-.33Z" transform="translate(-951.8 -530.93)"/></g></g><g id="Group_304" data-name="Group 304"><g id="Group_303" data-name="Group 303"><path id="Path_3192" data-name="Path 3192" class="cls-1" d="M956.55,542.65h-.63a.32.32,0,1,0,0,.63h.66a.32.32,0,0,0,.34-.3.32.32,0,0,0-.3-.33Z" transform="translate(-951.8 -530.93)"/></g></g><g id="Group_306" data-name="Group 306"><g id="Group_305" data-name="Group 305"><path id="Path_3193" data-name="Path 3193" class="cls-1" d="M965.42,542.65h-7.6a.32.32,0,1,0,0,.63h7.63a.32.32,0,0,0,.34-.3.32.32,0,0,0-.3-.33Z" transform="translate(-951.8 -530.93)"/></g></g><g id="Group_308" data-name="Group 308"><g id="Group_307" data-name="Group 307"><path id="Path_3194" data-name="Path 3194" class="cls-1" d="M956.55,540.75h-.63a.32.32,0,1,0,0,.63h.66a.32.32,0,0,0,.34-.3.32.32,0,0,0-.3-.33Z" transform="translate(-951.8 -530.93)"/></g></g><g id="Group_310" data-name="Group 310"><g id="Group_309" data-name="Group 309"><path id="Path_3195" data-name="Path 3195" class="cls-1" d="M965.42,540.75h-7.6a.32.32,0,1,0,0,.63h7.63a.32.32,0,0,0,0-.63Z" transform="translate(-951.8 -530.93)"/></g></g><g id="Group_312" data-name="Group 312"><g id="Group_311" data-name="Group 311"><path id="Path_3196" data-name="Path 3196" class="cls-1" d="M956.55,538.85h-.63a.32.32,0,1,0,0,.63h.66a.32.32,0,0,0,.34-.3.32.32,0,0,0-.3-.33Z" transform="translate(-951.8 -530.93)"/></g></g><g id="Group_314" data-name="Group 314"><g id="Group_313" data-name="Group 313"><path id="Path_3197" data-name="Path 3197" class="cls-1" d="M965.42,538.85h-7.6a.32.32,0,1,0,0,.63h7.63a.32.32,0,0,0,0-.63Z" transform="translate(-951.8 -530.93)"/></g></g><g id="Group_316" data-name="Group 316"><g id="Group_315" data-name="Group 315"><path id="Path_3198" data-name="Path 3198" class="cls-1" d="M956.55,537h-.63a.32.32,0,1,0,0,.63h.66a.32.32,0,0,0,.34-.3.32.32,0,0,0-.3-.33Z" transform="translate(-951.8 -530.93)"/></g></g><g id="Group_318" data-name="Group 318"><g id="Group_317" data-name="Group 317"><path id="Path_3199" data-name="Path 3199" class="cls-1" d="M965.42,537h-7.6a.32.32,0,1,0,0,.63h7.63a.32.32,0,0,0,0-.63Z" transform="translate(-951.8 -530.93)"/></g></g><g id="Group_320" data-name="Group 320"><g id="Group_319" data-name="Group 319"><path id="Path_3200" data-name="Path 3200" class="cls-1" d="M967.63,535.66a.22.22,0,0,0,0-.08v0a.22.22,0,0,0-.07-.09L963.11,531,963,531h0l-.09,0H954a.32.32,0,0,0-.32.32v1h-1.58a.33.33,0,0,0-.32.31v17.1a.32.32,0,0,0,.32.32h13.3a.32.32,0,0,0,.32-.32h0V548h1.58a.32.32,0,0,0,.32-.32h0V535.66ZM963.2,532l3.36,3.35H963.2Zm1.9,17.29H952.44V532.83h1.26v14.88a.32.32,0,0,0,.32.32H965.1Zm1.9-1.9H954.34V531.56h8.23v4.12a.32.32,0,0,0,.32.32H967Z" transform="translate(-951.8 -530.93)"/></g></g><g id="Group_322" data-name="Group 322"><g id="Group_321" data-name="Group 321"><path id="Path_3201" data-name="Path 3201" class="cls-1" d="M957.82,533.78h-1.9a.32.32,0,0,0-.32.32h0V536a.32.32,0,0,0,.32.31h1.9a.31.31,0,0,0,.32-.31h0v-1.9a.32.32,0,0,0-.32-.32Zm-.32,1.9h-1.26v-1.27h1.26Z" transform="translate(-951.8 -530.93)"/></g></g></svg>