<svg id="Layer_1" data-name="Layer 1" xmlns="http://www.w3.org/2000/svg" viewBox="0 0 61 60"><defs><style>.cls-1{fill:#41479b;}.cls-2{fill:#f5f5f5;}.cls-3{fill:#ff4b55;}.cls-4,.cls-5{fill:none;}.cls-5{stroke:#2b028d;}</style></defs><g id="Group_39276" data-name="Group 39276"><g id="svgexport-6_-_2022-08-25T124048.175" data-name="svgexport-6 - 2022-08-25T124048.175"><path id="Path_168313" data-name="Path 168313" class="cls-1" d="M974.39,566.93H944.75a11.53,11.53,0,0,1-11.53-11.52h0V525.76a11.53,11.53,0,0,1,11.53-11.53h29.64a11.53,11.53,0,0,1,11.53,11.53h0v29.65a11.53,11.53,0,0,1-11.53,11.52Z" transform="translate(-929.22 -510.43)"/><g id="Group_39274" data-name="Group 39274"><path id="Path_168314" data-name="Path 168314" class="cls-2" d="M985.92,555.41v-2.54l-8.17-5.35h8.17v-2.78H963.73v22.19h2.78V550.1l17.59,11.52a11.51,11.51,0,0,0,1.42-3.18" transform="translate(-929.22 -510.43)"/><path id="Path_168315" data-name="Path 168315" class="cls-2" d="M934,559.57a11.61,11.61,0,0,0,1,2l17.6-11.52v16.83h2.77V544.74H933.22v2.77h8.18l-8.18,5.36v2.54a11.66,11.66,0,0,0,.08,1.31" transform="translate(-929.22 -510.43)"/><path id="Path_168316" data-name="Path 168316" class="cls-2" d="M933.22,526.15v2.14l8.18,5.36h-8.18v2.77h22.19V514.23h-2.77v16.84L935,519.54a11.55,11.55,0,0,0-1.5,3.52" transform="translate(-929.22 -510.43)"/><path id="Path_168317" data-name="Path 168317" class="cls-2" d="M985.13,521.56a11,11,0,0,0-1-2l-17.59,11.53V514.23h-2.78v22.19h22.19v-2.77h-8.17l8.17-5.36v-2.53a10.19,10.19,0,0,0-.08-1.35" transform="translate(-929.22 -510.43)"/></g><g id="Group_39275" data-name="Group 39275"><path id="Path_168318" data-name="Path 168318" class="cls-3" d="M963.73,514.23h-8.32v22.19H933.22v8.33h22.19v22.18h8.32V544.75h22.19v-8.33H963.73Z" transform="translate(-929.22 -510.43)"/><path id="Path_168319" data-name="Path 168319" class="cls-3" d="M947.47,547.52l-14.17,9.2a11.65,11.65,0,0,0,.7,2.85l18.56-12.05Z" transform="translate(-929.22 -510.43)"/><path id="Path_168320" data-name="Path 168320" class="cls-3" d="M968.68,547.52l16.83,10.93a11.54,11.54,0,0,0,.41-3h0l-12.15-7.89Z" transform="translate(-929.22 -510.43)"/><path id="Path_168321" data-name="Path 168321" class="cls-3" d="M949.86,533.65l-16.32-10.59a11.66,11.66,0,0,0-.32,2.7v.4l11.55,7.5Z" transform="translate(-929.22 -510.43)"/><path id="Path_168322" data-name="Path 168322" class="cls-3" d="M971.6,533.65l14.24-9.24a11.56,11.56,0,0,0-.71-2.85l-18.62,12.09Z" transform="translate(-929.22 -510.43)"/></g></g><g id="Rectangle_8909" data-name="Rectangle 8909"><rect class="cls-4" width="61" height="60" rx="13"/><rect class="cls-5" x="0.5" y="0.5" width="60" height="59" rx="12.5"/></g></g></svg>