<?xml version="1.0" encoding="utf-8"?>
<!-- Generator: Adobe Illustrator 25.2.0, SVG Export Plug-In . SVG Version: 6.00 Build 0)  -->
<svg version="1.1" id="Layer_1" xmlns="http://www.w3.org/2000/svg" xmlns:xlink="http://www.w3.org/1999/xlink" x="0px" y="0px"
	 viewBox="0 0 595.28 841.89" style="enable-background:new 0 0 595.28 841.89;" xml:space="preserve">
<style type="text/css">
	.st0{fill:#231E21;}
</style>
<path id="linksys-logo-16_3_" class="st0" d="M243.05,317.85h4.3v-6.69l7.74-13.89h-4.73l-4.94,9.39l-4.94-9.39h-5.05l7.63,14.01
	L243.05,317.85z M201.26,307.57l9.35-10.28h5.8l-9.35,10.29l9.35,10.29h-5.8L201.26,307.57z M173.22,297.28h4.4v20.57h-4.4V297.28z
	 M217.38,317.85h13.75c2.36,0,3.98-1.54,3.98-4.89v-2.83c0-2.96-1.29-4.89-3.98-4.89h-10.31v-3.86h13.32v-4.11H220.6
	c-2.47,0-3.98,1.67-3.98,4.89v2.57c0,2.83,1.4,4.76,3.98,4.76h10.31v4.24h-13.54L217.38,317.85z M255.41,317.85h14.5
	c2.36,0,3.98-1.54,3.98-4.89v-2.83c0-2.96-1.29-4.89-3.98-4.89H259.6v-3.86h13.32v-4.11h-13.64c-2.47,0-3.98,1.67-3.98,4.89v2.57
	c0,2.83,1.4,4.76,3.98,4.76h10.31v4.24h-14.18L255.41,317.85z M153.46,317.85h17.08v-4.11h-12.68v-16.46h-4.4V317.85z
	 M180.96,317.85h3.98V303.2l13,14.66h2.69v-20.57h-3.98v12.34l-10.85-12.34h-4.84V317.85z M274.85,297.54h-0.43v1.29h-0.21v-1.29
	h-0.43v-0.26h0.97v0.26L274.85,297.54z M276.35,297.28h-0.21l-0.43,1.16l-0.54-1.16h-0.21v1.54h0.21v-1.16l0.43,1.03h0.11l0.43-1.03
	v1.03h0.21L276.35,297.28z"/>
</svg>
