<svg id="Layer_1" data-name="Layer 1" xmlns="http://www.w3.org/2000/svg" xmlns:xlink="http://www.w3.org/1999/xlink" viewBox="0 0 76.33 56.94"><defs><style>.cls-1{fill:url(#linear-gradient);}.cls-2{fill:url(#linear-gradient-2);}.cls-3{fill:url(#linear-gradient-3);}.cls-4{fill:url(#linear-gradient-4);}.cls-5{fill:url(#linear-gradient-5);}.cls-6{fill:url(#linear-gradient-6);}.cls-7{fill:url(#linear-gradient-7);}.cls-8{fill:url(#linear-gradient-8);}.cls-9{fill:url(#linear-gradient-9);}.cls-10{fill:#fff;}</style><linearGradient id="linear-gradient" x1="281.03" y1="385.95" x2="277.92" y2="404.86" gradientUnits="userSpaceOnUse"><stop offset="0" stop-color="#e8422d"/><stop offset="1" stop-color="#56519e"/></linearGradient><linearGradient id="linear-gradient-2" x1="284.2" y1="386.47" x2="281.09" y2="405.39" xlink:href="#linear-gradient"/><linearGradient id="linear-gradient-3" x1="287.37" y1="386.99" x2="284.25" y2="405.91" xlink:href="#linear-gradient"/><linearGradient id="linear-gradient-4" x1="290.53" y1="387.51" x2="287.41" y2="406.43" xlink:href="#linear-gradient"/><linearGradient id="linear-gradient-5" x1="268.38" y1="383.86" x2="265.26" y2="402.78" xlink:href="#linear-gradient"/><linearGradient id="linear-gradient-6" x1="271.54" y1="384.38" x2="268.43" y2="403.3" xlink:href="#linear-gradient"/><linearGradient id="linear-gradient-7" x1="274.71" y1="384.91" x2="271.6" y2="403.82" xlink:href="#linear-gradient"/><linearGradient id="linear-gradient-8" x1="277.87" y1="385.43" x2="274.76" y2="404.34" xlink:href="#linear-gradient"/><linearGradient id="linear-gradient-9" x1="291.86" y1="388" x2="288.74" y2="406.91" xlink:href="#linear-gradient"/></defs><path class="cls-1" d="M281,382.86A83.2,83.2,0,0,0,278.89,395c-.1,1,.91,1,1.17,0a83.72,83.72,0,0,0,2.13-12.12C282.29,381.84,281.29,381.84,281,382.86Z" transform="translate(-242.18 -373.62)"/><path class="cls-2" d="M285.75,374.51c-2,9.43-3.63,18.9-5,28.4-.17,1.19.92,1.19,1.17,0,2-9.5,3.66-19,5-28.4C287.09,373.32,286,373.32,285.75,374.51Z" transform="translate(-242.18 -373.62)"/><path class="cls-3" d="M288.71,376.19q-2.68,12.54-4.45,25.19c-.16,1.18.92,1.18,1.17,0,1.78-8.43,3.28-16.83,4.44-25.19C290,375,289,375,288.71,376.19Z" transform="translate(-242.18 -373.62)"/><path class="cls-4" d="M291.29,380a181.42,181.42,0,0,0-3.16,17.93c-.15,1.16.9,1.16,1.16,0A180.72,180.72,0,0,0,292.45,380C292.6,378.83,291.55,378.83,291.29,380Z" transform="translate(-242.18 -373.62)"/><path class="cls-5" d="M268.54,380a181.42,181.42,0,0,0-3.16,17.93c-.15,1.16.9,1.16,1.16,0A180.72,180.72,0,0,0,269.7,380C269.84,378.83,268.8,378.83,268.54,380Z" transform="translate(-242.18 -373.62)"/><path class="cls-6" d="M272.45,376.19q-2.67,12.54-4.44,25.19c-.16,1.18.92,1.18,1.17,0,1.78-8.43,3.28-16.83,4.44-25.19C273.79,375,272.71,375,272.45,376.19Z" transform="translate(-242.18 -373.62)"/><path class="cls-7" d="M276,374.51c-2,9.43-3.63,18.9-5,28.4-.17,1.19.92,1.19,1.17,0,2-9.5,3.66-19,5-28.4C277.34,373.32,276.25,373.32,276,374.51Z" transform="translate(-242.18 -373.62)"/><path class="cls-8" d="M277.78,382.86A83.2,83.2,0,0,0,275.64,395c-.1,1,.91,1,1.17,0a83.72,83.72,0,0,0,2.13-12.12C279,381.84,278,381.84,277.78,382.86Z" transform="translate(-242.18 -373.62)"/><path class="cls-9" d="M288.11,402.47a1.37,1.37,0,1,1,1.36,1.34A1.34,1.34,0,0,1,288.11,402.47Zm2.54,0a1.18,1.18,0,1,0-1.18,1.17A1.16,1.16,0,0,0,290.65,402.47Zm-1.63-.71h.56a.44.44,0,0,1,.45.44.42.42,0,0,1-.26.39l.28.58h-.19l-.26-.54h-.39v.53H289Zm.55.73a.29.29,0,0,0,0-.58h-.36v.58Z" transform="translate(-242.18 -373.62)"/><path class="cls-10" d="M249,410.84h1.9v11.37H249v-4.92h-4.93v4.92h-1.91V410.84h1.91v4.66H249Z" transform="translate(-242.18 -373.62)"/><path class="cls-10" d="M254.83,412.74a1.07,1.07,0,0,1-.8.34,1.1,1.1,0,0,1-.81-.34,1.09,1.09,0,0,1,0-1.57,1.14,1.14,0,0,1,.82-.33,1.1,1.1,0,0,1,.81.33,1.07,1.07,0,0,1,.33.79A1,1,0,0,1,254.83,412.74Zm-1.7,9.47v-8.12h1.79v8.12Z" transform="translate(-242.18 -373.62)"/><path class="cls-10" d="M271.82,413.87a3.06,3.06,0,0,1,2.3.9,3.31,3.31,0,0,1,.88,2.45v5h-1.79V417.4a1.89,1.89,0,0,0-.5-1.4,1.87,1.87,0,0,0-1.36-.48,2.06,2.06,0,0,0-1.52.57,2.38,2.38,0,0,0-.59,1.76v4.36h-1.79V410.84h1.79v4.29A2.85,2.85,0,0,1,271.82,413.87Z" transform="translate(-242.18 -373.62)"/><path class="cls-10" d="M294.53,422.42a4.31,4.31,0,0,1-3.1-1.23,4.25,4.25,0,0,1,0-6.08,4.52,4.52,0,0,1,6.22,0,4.3,4.3,0,0,1,0,6.08A4.32,4.32,0,0,1,294.53,422.42ZM292.69,420a2.7,2.7,0,0,0,3.69,0,2.65,2.65,0,0,0,0-3.67,2.7,2.7,0,0,0-3.69,0,2.65,2.65,0,0,0,0,3.67Z" transform="translate(-242.18 -373.62)"/><path class="cls-10" d="M302.24,412.74a1.08,1.08,0,0,1-.8.34,1.1,1.1,0,0,1-.81-.34,1,1,0,0,1-.34-.78,1.07,1.07,0,0,1,.33-.79,1.12,1.12,0,0,1,.82-.33,1.1,1.1,0,0,1,.81.33,1.07,1.07,0,0,1,.33.79A1,1,0,0,1,302.24,412.74Zm-1.7,9.47v-8.12h1.79v8.12Z" transform="translate(-242.18 -373.62)"/><path class="cls-10" d="M308.77,413.87a3.1,3.1,0,0,1,2.31.9,3.35,3.35,0,0,1,.88,2.45v5h-1.79V417.4a1.7,1.7,0,0,0-1.86-1.88,2.1,2.1,0,0,0-1.53.57,2.38,2.38,0,0,0-.58,1.76v4.36h-1.79v-8.12h1.79v1A2.83,2.83,0,0,1,308.77,413.87Z" transform="translate(-242.18 -373.62)"/><path class="cls-10" d="M318.51,415.77h-2.06v3.9a1,1,0,0,0,.24.73,1,1,0,0,0,.69.24,8.67,8.67,0,0,0,1.13,0v1.58a4.54,4.54,0,0,1-2.95-.35,2.43,2.43,0,0,1-.9-2.19v-3.9h-1.52v-1.68h1.52v-1.76l1.79-.52v2.28h2.06Z" transform="translate(-242.18 -373.62)"/><path class="cls-10" d="M288.55,411.91a3.75,3.75,0,0,0-2.74-1.07h-4.62v1.75h4.62a1.88,1.88,0,0,1,1.39.56,2.11,2.11,0,0,1,0,2.84,1.85,1.85,0,0,1-1.39.56h-4.62v5.66h1.91v-3.9h2.71a3.76,3.76,0,0,0,2.74-1.08,3.77,3.77,0,0,0,0-5.32Z" transform="translate(-242.18 -373.62)"/><path class="cls-10" d="M263.6,414.09v1.2a3.35,3.35,0,0,0-2.89-1.42,4,4,0,0,0-3,1.23,4.24,4.24,0,0,0,0,5.93,4,4,0,0,0,3,1.23,3.32,3.32,0,0,0,2.89-1.42v1a2.15,2.15,0,0,1-.65,1.65,2.66,2.66,0,0,1-1.82.59,3.08,3.08,0,0,1-1.56-.36l-.78,1.51a5.53,5.53,0,0,0,2.31.44,4.71,4.71,0,0,0,3-1,3.42,3.42,0,0,0,1.24-2.84v-7.75Zm-.75,5.8a2.8,2.8,0,0,1-3.77,0,2.45,2.45,0,0,1-.75-1.82,2.42,2.42,0,0,1,.75-1.82,2.77,2.77,0,0,1,3.77,0,2.42,2.42,0,0,1,.75,1.82A2.45,2.45,0,0,1,262.85,419.89Z" transform="translate(-242.18 -373.62)"/><path class="cls-10" d="M284.09,426.56v.49H282.9v3.44h-.53v-3.44h-1.18v-.49Z" transform="translate(-242.18 -373.62)"/><path class="cls-10" d="M285.15,430H287v.49h-2.39v-3.93H287v.49h-1.83v1.21h1.69v.49h-1.69Z" transform="translate(-242.18 -373.62)"/><path class="cls-10" d="M289.51,430.56A2,2,0,0,1,288,430a2,2,0,0,1,0-2.89,2,2,0,0,1,1.5-.59,1.93,1.93,0,0,1,1,.26,1.84,1.84,0,0,1,.72.69l-.46.27a1.34,1.34,0,0,0-.51-.52,1.51,1.51,0,0,0-.76-.2,1.54,1.54,0,0,0-1.13.44,1.49,1.49,0,0,0-.44,1.09,1.48,1.48,0,0,0,.44,1.09,1.65,1.65,0,0,0,1.89.25,1.34,1.34,0,0,0,.51-.52l.46.26a1.71,1.71,0,0,1-.71.7A2,2,0,0,1,289.51,430.56Z" transform="translate(-242.18 -373.62)"/><path class="cls-10" d="M294.33,426.56h.53v3.93h-.53v-1.77h-1.95v1.77h-.53v-3.93h.53v1.67h1.95Z" transform="translate(-242.18 -373.62)"/><path class="cls-10" d="M298.21,426.56h.53v3.93h-.43l-2.06-2.94v2.94h-.53v-3.93h.41l2.08,2.95Z" transform="translate(-242.18 -373.62)"/><path class="cls-10" d="M302.94,430a2,2,0,0,1-1.47.59A2.05,2.05,0,0,1,300,430a2,2,0,0,1-.6-1.45,2,2,0,0,1,.6-1.44,2,2,0,0,1,1.48-.59,2,2,0,0,1,1.47.59,1.92,1.92,0,0,1,.61,1.44A1.94,1.94,0,0,1,302.94,430Zm-2.58-.36a1.5,1.5,0,0,0,1.11.44,1.48,1.48,0,0,0,1.1-.44,1.44,1.44,0,0,0,.44-1.09,1.47,1.47,0,0,0-.44-1.09,1.52,1.52,0,0,0-1.1-.44,1.54,1.54,0,0,0-1.11.44,1.51,1.51,0,0,0-.44,1.09A1.48,1.48,0,0,0,300.36,429.61Z" transform="translate(-242.18 -373.62)"/><path class="cls-10" d="M304.72,430h1.73v.49h-2.26v-3.93h.53Z" transform="translate(-242.18 -373.62)"/><path class="cls-10" d="M310.05,430a2,2,0,0,1-1.47.59,2.05,2.05,0,0,1-1.48-.59,2,2,0,0,1-.6-1.45,2,2,0,0,1,.6-1.44,2,2,0,0,1,1.48-.59,2,2,0,0,1,1.47.59,1.92,1.92,0,0,1,.61,1.44A1.94,1.94,0,0,1,310.05,430Zm-2.58-.36a1.5,1.5,0,0,0,1.11.44,1.48,1.48,0,0,0,1.1-.44,1.44,1.44,0,0,0,.44-1.09,1.47,1.47,0,0,0-.44-1.09,1.52,1.52,0,0,0-1.1-.44,1.54,1.54,0,0,0-1.11.44,1.51,1.51,0,0,0-.44,1.09A1.48,1.48,0,0,0,307.47,429.61Z" transform="translate(-242.18 -373.62)"/><path class="cls-10" d="M315.17,428.54v.24a1.66,1.66,0,0,1-.54,1.27,2,2,0,0,1-1.43.51,2,2,0,0,1-1.51-.59,2,2,0,0,1,0-2.89,2,2,0,0,1,1.5-.59,2,2,0,0,1,1,.26,1.84,1.84,0,0,1,.72.69l-.46.26a1.28,1.28,0,0,0-.52-.51,1.51,1.51,0,0,0-.76-.2,1.54,1.54,0,0,0-1.13.44,1.47,1.47,0,0,0-.44,1.09,1.44,1.44,0,0,0,.44,1.09,1.54,1.54,0,0,0,1.15.44,1.48,1.48,0,0,0,1-.29,1.19,1.19,0,0,0,.46-.75h-1.48v-.47Z" transform="translate(-242.18 -373.62)"/><path class="cls-10" d="M318.51,426.56l-1.42,2.34v1.59h-.53V428.9l-1.42-2.34h.6l1.09,1.84,1.09-1.84Z" transform="translate(-242.18 -373.62)"/></svg>