<svg id="Layer_1" data-name="Layer 1" xmlns="http://www.w3.org/2000/svg" viewBox="0 0 102.5 102.51"><defs><style>.cls-1{fill:#e73736;}</style></defs><g id="Group_39215" data-name="Group 39215"><path id="Path_168188" data-name="Path 168188" class="cls-1" d="M263.4,471.56h12.69a3.5,3.5,0,0,0,.39-7H263.4c-5.34,0-9.66-4.74-9.66-10.28V402.84H341.1V416c0,2,2.08,3.61,4.07,3.61s4.08-1.61,4.08-3.61V386.41c0-9.4-8.84-17.35-18.14-17.35H263.4c-9.32,0-16.65,7.78-16.65,17.35v67.88C246.75,463.81,254.08,471.56,263.4,471.56Zm-9.66-85.15c0-5.49,4.41-10.36,9.66-10.36h67.71c5.39,0,10,4.87,10,10.36v9.44H253.74Z" transform="translate(-246.75 -369.06)"/><path id="Path_168189" data-name="Path 168189" class="cls-1" d="M328.78,383h-1.44c-2,0-3.61,2.08-3.61,4.08s1.62,4.07,3.61,4.07h1.44c2,0,3.61-2.08,3.61-4.07S330.77,383,328.78,383Z" transform="translate(-246.75 -369.06)"/><path id="Path_168190" data-name="Path 168190" class="cls-1" d="M316.51,383h-1.44c-2,0-3.61,2.08-3.61,4.08s1.61,4.07,3.61,4.07h1.44c2,0,3.61-2.08,3.61-4.07S318.5,383,316.51,383Z" transform="translate(-246.75 -369.06)"/><path id="Path_168191" data-name="Path 168191" class="cls-1" d="M303.52,383h-1.45c-2,0-3.61,2.08-3.61,4.08s1.62,4.07,3.61,4.07h1.45c2,0,3.61-2.08,3.61-4.07S305.51,383,303.52,383Z" transform="translate(-246.75 -369.06)"/><path id="Path_168192" data-name="Path 168192" class="cls-1" d="M313.13,419.3A39.1,39.1,0,0,0,277,444s7.58,27.9,36.1,27.29c30.15-.64,36.11-27.29,36.11-27.29A39.11,39.11,0,0,0,313.13,419.3Zm.26,44.81a31.28,31.28,0,0,1-28.57-18.79,31.13,31.13,0,0,1,57.16,0,31.28,31.28,0,0,1-28.58,18.79Z" transform="translate(-246.75 -369.06)"/><path id="Path_168193" data-name="Path 168193" class="cls-1" d="M313.4,431.31a14,14,0,1,0,14,14h0A14,14,0,0,0,313.4,431.31Zm0,20.79a6.79,6.79,0,1,1,6.78-6.78A6.78,6.78,0,0,1,313.4,452.1Z" transform="translate(-246.75 -369.06)"/></g></svg>