<svg id="Layer_1" data-name="Layer 1" xmlns="http://www.w3.org/2000/svg" viewBox="0 0 172.71 124.53"><defs><style>.cls-1,.cls-2,.cls-3,.cls-4{fill:none;stroke-miterlimit:10;}.cls-1{stroke:#e73737;}.cls-2{stroke:#e73736;}.cls-3,.cls-4{stroke:#e73738;}.cls-4{stroke-width:0.75px;}</style></defs><g id="Group_284" data-name="Group 284"><g id="Layer_8" data-name="Layer 8"><path id="Path_2999" data-name="Path 2999" class="cls-1" d="M281.28,430.44V441a7.71,7.71,0,0,1-7.71,7.71H249.3a7.71,7.71,0,0,1-7.71-7.71h0V430.44a7.71,7.71,0,0,1,7.71-7.71h24.27a7.71,7.71,0,0,1,7.71,7.71Z" transform="translate(-167.6 -324.67)"/><g id="Layer_11" data-name="Layer 11"><g id="Layer_13" data-name="Layer 13"><path id="Path_3000" data-name="Path 3000" class="cls-2" d="M339.64,348.62,333,338c-21,6.65-22.54-12.79-22.54-12.79H296.71a16.24,16.24,0,0,1-5.28,9.66,16.84,16.84,0,0,1-16.95,2.53c-2,3.43-4.06,6.89-6.09,10.35A21.2,21.2,0,0,1,270.6,350a17.94,17.94,0,0,1,3.59,8.13c1.51,9.57-5.7,16.38-6.31,16.93q3.31,5.37,6.64,10.66a16.14,16.14,0,0,1,22.17,13.1l11.37-.73L311,398a15.35,15.35,0,0,1,4.24-9.26,17,17,0,0,1,18.3-2.93l6.07-11.56C325,359,339.64,348.62,339.64,348.62Z" transform="translate(-167.6 -324.67)"/></g></g><path id="Path_3001" data-name="Path 3001" class="cls-1" d="M267.9,375.1" transform="translate(-167.6 -324.67)"/><path id="Path_3002" data-name="Path 3002" class="cls-2" d="M308.23,398.13v21.54a16,16,0,0,1-16,16H281.33v-5.27a7.71,7.71,0,0,0-7.71-7.71H249.3a7.71,7.71,0,0,0-7.71,7.71h0v5.27H216.83v-5.27a7.71,7.71,0,0,0-7.71-7.71H184.86a7.71,7.71,0,0,0-7.71,7.71h0v3.65a16,16,0,0,1-9.05-14.42V366.09a16,16,0,0,1,16.05-16h86.43" transform="translate(-167.6 -324.67)"/><path id="Path_3003" data-name="Path 3003" class="cls-1" d="M296.82,398.86" transform="translate(-167.6 -324.67)"/><path id="Path_3004" data-name="Path 3004" class="cls-1" d="M289.24,386.91" transform="translate(-167.6 -324.67)"/><path id="Path_3005" data-name="Path 3005" class="cls-1" d="M274.59,385.76" transform="translate(-167.6 -324.67)"/><path id="Path_3006" data-name="Path 3006" class="cls-3" d="M216.84,430.44V441a7.71,7.71,0,0,1-7.71,7.71H184.86a7.71,7.71,0,0,1-7.71-7.71h0V430.44a7.71,7.71,0,0,1,7.71-7.71h24.27a7.71,7.71,0,0,1,7.71,7.71Z" transform="translate(-167.6 -324.67)"/><path id="Path_3007" data-name="Path 3007" class="cls-4" d="M253,414.19v8.54H249.3a7.71,7.71,0,0,0-7.71,7.71h0v5.27H216.84v-5.27a7.71,7.71,0,0,0-7.71-7.71h-3.66v-8.54Z" transform="translate(-167.6 -324.67)"/><rect id="Rectangle_1656" data-name="Rectangle 1656" class="cls-3" x="35.03" y="53" width="53.94" height="24.78" rx="4.58"/><rect id="Rectangle_1657" data-name="Rectangle 1657" class="cls-3" x="61.18" y="77.76" width="1.62" height="11.77"/></g><g id="Layer_9" data-name="Layer 9"><circle id="Ellipse_92" data-name="Ellipse 92" class="cls-2" cx="136.11" cy="37.35" r="19.08"/></g></g></svg>