<svg id="Layer_1" data-name="Layer 1" xmlns="http://www.w3.org/2000/svg" viewBox="0 0 268.08 123.57"><defs><style>.cls-1,.cls-2{fill:none;stroke-miterlimit:10;}.cls-1{stroke:#fff;}.cls-2{stroke:#e73736;}</style></defs><g id="Layer_5" data-name="Layer 5"><path id="Path_2992" data-name="Path 2992" class="cls-1" d="M266.87,390.67c0,7.68-4.94,13.91-11,13.91s-11.13-6.23-11.13-13.91,4.94-13.94,11.13-13.94S266.87,383,266.87,390.67Z" transform="translate(-119.92 -325.15)"/><path id="Path_2993" data-name="Path 2993" class="cls-2" d="M184,353.17l6.12,43.46,39.17-.62a24.17,24.17,0,0,0,3.9,12.85,18.47,18.47,0,0,0,1.74,2.22,23.94,23.94,0,0,0,9.61,6.26,30.87,30.87,0,0,0,14.48,2,22.42,22.42,0,0,0,10.2-2.81,21,21,0,0,0,4.83-3.92,23.25,23.25,0,0,0,2.92-3.78,21.18,21.18,0,0,0,3.31-12.23h38.88l6.12-43.46Zm71.9,23.56c6.08,0,11,6.23,11,13.94s-4.94,13.91-11,13.91-11.13-6.23-11.13-13.91,5-13.94,11.06-13.94Z" transform="translate(-119.92 -325.15)"/><path id="Path_2994" data-name="Path 2994" class="cls-2" d="M276.91,408.86h29.41l29.17,39.56" transform="translate(-119.92 -325.15)"/><path id="Path_2995" data-name="Path 2995" class="cls-2" d="M174.36,448.42l28.56-39.56h30.22" transform="translate(-119.92 -325.15)"/><path id="Path_2996" data-name="Path 2996" class="cls-2" d="M324.27,367h21V332.78" transform="translate(-119.92 -325.15)"/><path id="Path_2997" data-name="Path 2997" class="cls-2" d="M185,366h-22V331.77" transform="translate(-119.92 -325.15)"/><line id="Line_113" data-name="Line 113" class="cls-2" x1="179.66" y1="0.5" x2="268.08" y2="0.5"/><line id="Line_114" data-name="Line 114" class="cls-2" y1="0.5" x2="88.42" y2="0.5"/><path id="Path_2998" data-name="Path 2998" class="cls-2" d="M266.87,390.67c0,7.68-4.94,13.91-11,13.91s-11.13-6.23-11.13-13.91,4.94-13.94,11.13-13.94S266.87,383,266.87,390.67Z" transform="translate(-119.92 -325.15)"/></g></svg>